<?xml version="1.0" encoding="UTF-8" standalone="no"?>
<!-- Created with Inkscape (http://www.inkscape.org/) -->

<svg
   width="179.30048mm"
   height="127.00002mm"
   viewBox="0 0 179.30047 127.00002"
   version="1.1"
   id="svg1"
   inkscape:version="1.4.2 (ebf0e940d0, 2025-05-08)"
   sodipodi:docname="logo.svg"
   xmlns:inkscape="http://www.inkscape.org/namespaces/inkscape"
   xmlns:sodipodi="http://sodipodi.sourceforge.net/DTD/sodipodi-0.dtd"
   xmlns="http://www.w3.org/2000/svg"
   xmlns:svg="http://www.w3.org/2000/svg">
  <sodipodi:namedview
     id="namedview1"
     pagecolor="#ffffff"
     bordercolor="#000000"
     borderopacity="0.25"
     inkscape:showpageshadow="2"
     inkscape:pageopacity="0.0"
     inkscape:pagecheckerboard="0"
     inkscape:deskcolor="#d1d1d1"
     inkscape:document-units="mm"
     inkscape:zoom="1.160504"
     inkscape:cx="419.64526"
     inkscape:cy="321.84293"
     inkscape:window-width="1896"
     inkscape:window-height="1014"
     inkscape:window-x="10"
     inkscape:window-y="52"
     inkscape:window-maximized="1"
     inkscape:current-layer="layer1" />
  <defs
     id="defs1" />
  <g
     inkscape:label="Layer 1"
     inkscape:groupmode="layer"
     id="layer1"
     transform="translate(-34.677818,-129.54842)">
    <rect
       style="fill:#999999;stroke-width:0.274903"
       id="rect2-7"
       width="174.59216"
       height="122.29161"
       x="39.386139"
       y="134.25682" />
    <rect
       style="fill:#ececec;stroke-width:0.274345"
       id="rect2"
       width="174.30048"
       height="122.00002"
       x="34.677818"
       y="129.54842" />
    <path
       id="rect1-3-2-6-8"
       style="fill:#1a1a1a;stroke-width:0.264583"
       d="m 44.677816,191.66515 v 9.99991 9.9999 9.99991 10.00042 9.99991 h 9.999907 9.999906 10.000423 9.999907 9.999904 v -9.99991 -10.00042 -9.99991 -9.9999 -9.99991 H 84.677959 74.678052 64.677629 54.677723 Z m 9.999907,9.99991 h 9.999906 10.000423 9.999907 v 9.9999 9.99991 10.00042 H 74.678052 64.677629 54.677723 v -10.00042 -9.99991 z" />
    <path
       id="rect1-6"
       style="fill:#1a1a1a;stroke-width:0.264583"
       d="m 44.677816,139.54842 v 9.99991 9.9999 10.00043 9.9999 9.99991 h 9.999907 9.999906 10.000423 9.999907 9.999904 v -9.99991 H 84.677959 74.678052 64.677629 54.677723 v -9.9999 h 9.999906 10.000423 9.999907 9.999904 V 159.54823 H 84.677959 74.678052 64.677629 54.677723 v -9.9999 h 9.999906 10.000423 9.999907 9.999904 v -9.99991 H 84.677959 74.678052 64.677629 54.677723 Z" />
    <path
       id="rect1"
       style="fill:#1a1a1a;fill-opacity:1;stroke-width:0.845083"
       d="m 96.82803,139.54833 v 0.10077 4.32273 97.69326 h 9.99991 40.00014 v -0.0997 -10.11153 -91.90499 l -9.99991,-5.1e-4 v 91.9055 h -9.9999 v -61.27068 h -9.99991 v 61.27068 h -10.00042 v -87.482 -4.32273 -0.10077 z" />
    <path
       id="rect1-9"
       style="fill:#1a1a1a;fill-opacity:1;stroke-width:0.845083"
       d="m 148.97825,241.6652 v -0.10077 -4.32273 -97.69326 h 9.99991 40.00014 v 0.0997 10.11153 91.90499 l -9.99991,5.1e-4 v -91.9055 h -9.9999 v 61.27068 h -9.99991 v -61.27068 h -10.00042 v 87.482 4.32273 0.10077 z" />
  </g>
</svg>
